<svg width="24" height="24" viewBox="0 0 24 24" fill="none" xmlns="http://www.w3.org/2000/svg">
<path d="M24 23.3333C24 23.7015 23.7015 24 23.3333 24C22.9651 24 22.6667 23.7015 22.6667 23.3333C22.6667 22.9651 22.9651 22.6667 23.3333 22.6667C23.7015 22.6667 24 22.9651 24 23.3333Z" fill="white"/>
<path d="M13.3333 23.3333C13.3333 23.7015 13.0349 24 12.6667 24C12.2985 24 12 23.7015 12 23.3333C12 22.9651 12.2985 22.6667 12.6667 22.6667C13.0349 22.6667 13.3333 22.9651 13.3333 23.3333Z" fill="white"/>
<path d="M7.99999 23.3333C7.99999 23.7015 7.70151 24 7.33332 24C6.96513 24 6.66666 23.7015 6.66666 23.3333C6.66666 22.9651 6.96513 22.6667 7.33332 22.6667C7.70151 22.6667 7.99999 22.9651 7.99999 23.3333Z" fill="white"/>
<path d="M22.6667 23.3333C22.6667 23.7015 22.3682 24 22 24C21.6318 24 21.3333 23.7015 21.3333 23.3333C21.3333 22.9651 21.6318 22.6667 22 22.6667C22.3682 22.6667 22.6667 22.9651 22.6667 23.3333Z" fill="white"/>
<path d="M12 23.3333C12 23.7015 11.7015 24 11.3333 24C10.9651 24 10.6667 23.7015 10.6667 23.3333C10.6667 22.9651 10.9651 22.6667 11.3333 22.6667C11.7015 22.6667 12 22.9651 12 23.3333Z" fill="white"/>
<path d="M6.66666 23.3333C6.66666 23.7015 6.3682 24 6.00001 24C5.63182 24 5.33334 23.7015 5.33334 23.3333C5.33334 22.9651 5.63182 22.6667 6.00001 22.6667C6.3682 22.6667 6.66666 22.9651 6.66666 23.3333Z" fill="white"/>
<path d="M21.3333 23.3333C21.3333 23.7015 21.0349 24 20.6667 24C20.2985 24 20 23.7015 20 23.3333C20 22.9651 20.2985 22.6667 20.6667 22.6667C21.0349 22.6667 21.3333 22.9651 21.3333 23.3333Z" fill="white"/>
<path d="M10.6667 23.3333C10.6667 23.7015 10.3682 24 10 24C9.63182 24 9.33334 23.7015 9.33334 23.3333C9.33334 22.9651 9.63182 22.6667 10 22.6667C10.3682 22.6667 10.6667 22.9651 10.6667 23.3333Z" fill="white"/>
<path d="M5.33334 23.3333C5.33334 23.7015 5.03486 24 4.66667 24C4.29848 24 4 23.7015 4 23.3333C4 22.9651 4.29848 22.6667 4.66667 22.6667C5.03486 22.6667 5.33334 22.9651 5.33334 23.3333Z" fill="white"/>
<path d="M20 23.3333C20 23.7015 19.7015 24 19.3333 24C18.9651 24 18.6667 23.7015 18.6667 23.3333C18.6667 22.9651 18.9651 22.6667 19.3333 22.6667C19.7015 22.6667 20 22.9651 20 23.3333Z" fill="white"/>
<path d="M14.6667 23.3333C14.6667 23.7015 14.3682 24 14 24C13.6318 24 13.3333 23.7015 13.3333 23.3333C13.3333 22.9651 13.6318 22.6667 14 22.6667C14.3682 22.6667 14.6667 22.9651 14.6667 23.3333Z" fill="white"/>
<path d="M9.33334 23.3333C9.33334 23.7015 9.03486 24 8.66667 24C8.29848 24 7.99999 23.7015 7.99999 23.3333C7.99999 22.9651 8.29848 22.6667 8.66667 22.6667C9.03486 22.6667 9.33334 22.9651 9.33334 23.3333Z" fill="white"/>
<path d="M4 23.3333C4 23.7015 3.70151 24 3.33332 24C2.96513 24 2.66666 23.7015 2.66666 23.3333C2.66666 22.9651 2.96513 22.6667 3.33332 22.6667C3.70151 22.6667 4 22.9651 4 23.3333Z" fill="white"/>
<path d="M24 22C24 22.3682 23.7015 22.6667 23.3333 22.6667C22.9651 22.6667 22.6667 22.3682 22.6667 22C22.6667 21.6318 22.9651 21.3333 23.3333 21.3333C23.7015 21.3333 24 21.6318 24 22Z" fill="white"/>
<path d="M13.3333 22C13.3333 22.3682 13.0349 22.6667 12.6667 22.6667C12.2985 22.6667 12 22.3682 12 22C12 21.6318 12.2985 21.3333 12.6667 21.3333C13.0349 21.3333 13.3333 21.6318 13.3333 22Z" fill="white"/>
<path d="M7.99999 22C7.99999 22.3682 7.70151 22.6667 7.33332 22.6667C6.96513 22.6667 6.66666 22.3682 6.66666 22C6.66666 21.6318 6.96513 21.3333 7.33332 21.3333C7.70151 21.3333 7.99999 21.6318 7.99999 22Z" fill="white"/>
<path d="M22.6667 22C22.6667 22.3682 22.3682 22.6667 22 22.6667C21.6318 22.6667 21.3333 22.3682 21.3333 22C21.3333 21.6318 21.6318 21.3333 22 21.3333C22.3682 21.3333 22.6667 21.6318 22.6667 22Z" fill="white"/>
<path d="M12 22C12 22.3682 11.7015 22.6667 11.3333 22.6667C10.9651 22.6667 10.6667 22.3682 10.6667 22C10.6667 21.6318 10.9651 21.3333 11.3333 21.3333C11.7015 21.3333 12 21.6318 12 22Z" fill="white"/>
<path d="M6.66666 22C6.66666 22.3682 6.3682 22.6667 6.00001 22.6667C5.63182 22.6667 5.33334 22.3682 5.33334 22C5.33334 21.6318 5.63182 21.3333 6.00001 21.3333C6.3682 21.3333 6.66666 21.6318 6.66666 22Z" fill="white"/>
<path d="M21.3333 22C21.3333 22.3682 21.0349 22.6667 20.6667 22.6667C20.2985 22.6667 20 22.3682 20 22C20 21.6318 20.2985 21.3333 20.6667 21.3333C21.0349 21.3333 21.3333 21.6318 21.3333 22Z" fill="white"/>
<path d="M16 22C16 22.3682 15.7015 22.6667 15.3333 22.6667C14.9651 22.6667 14.6667 22.3682 14.6667 22C14.6667 21.6318 14.9651 21.3333 15.3333 21.3333C15.7015 21.3333 16 21.6318 16 22Z" fill="white"/>
<path d="M10.6667 22C10.6667 22.3682 10.3682 22.6667 10 22.6667C9.63182 22.6667 9.33334 22.3682 9.33334 22C9.33334 21.6318 9.63182 21.3333 10 21.3333C10.3682 21.3333 10.6667 21.6318 10.6667 22Z" fill="white"/>
<path d="M5.33334 22C5.33334 22.3682 5.03486 22.6667 4.66667 22.6667C4.29848 22.6667 4 22.3682 4 22C4 21.6318 4.29848 21.3333 4.66667 21.3333C5.03486 21.3333 5.33334 21.6318 5.33334 22Z" fill="white"/>
<path d="M20 22C20 22.3682 19.7015 22.6667 19.3333 22.6667C18.9651 22.6667 18.6667 22.3682 18.6667 22C18.6667 21.6318 18.9651 21.3333 19.3333 21.3333C19.7015 21.3333 20 21.6318 20 22Z" fill="white"/>
<path d="M14.6667 22C14.6667 22.3682 14.3682 22.6667 14 22.6667C13.6318 22.6667 13.3333 22.3682 13.3333 22C13.3333 21.6318 13.6318 21.3333 14 21.3333C14.3682 21.3333 14.6667 21.6318 14.6667 22Z" fill="white"/>
<path d="M9.33334 22C9.33334 22.3682 9.03486 22.6667 8.66667 22.6667C8.29848 22.6667 7.99999 22.3682 7.99999 22C7.99999 21.6318 8.29848 21.3333 8.66667 21.3333C9.03486 21.3333 9.33334 21.6318 9.33334 22Z" fill="white"/>
<path d="M4 22C4 22.3682 3.70151 22.6667 3.33332 22.6667C2.96513 22.6667 2.66666 22.3682 2.66666 22C2.66666 21.6318 2.96513 21.3333 3.33332 21.3333C3.70151 21.3333 4 21.6318 4 22Z" fill="white"/>
<path d="M24 20.6667C24 21.0349 23.7015 21.3333 23.3333 21.3333C22.9651 21.3333 22.6667 21.0349 22.6667 20.6667C22.6667 20.2985 22.9651 20 23.3333 20C23.7015 20 24 20.2985 24 20.6667Z" fill="white"/>
<path d="M13.3333 20.6667C13.3333 21.0349 13.0349 21.3333 12.6667 21.3333C12.2985 21.3333 12 21.0349 12 20.6667C12 20.2985 12.2985 20 12.6667 20C13.0349 20 13.3333 20.2985 13.3333 20.6667Z" fill="white"/>
<path d="M7.99999 20.6667C7.99999 21.0349 7.70151 21.3333 7.33332 21.3333C6.96513 21.3333 6.66666 21.0349 6.66666 20.6667C6.66666 20.2985 6.96513 20 7.33332 20C7.70151 20 7.99999 20.2985 7.99999 20.6667Z" fill="white"/>
<path d="M2.66668 20.6667C2.66668 21.0349 2.3682 21.3333 2.00001 21.3333C1.63182 21.3333 1.33334 21.0349 1.33334 20.6667C1.33334 20.2985 1.63182 20 2.00001 20C2.3682 20 2.66668 20.2985 2.66668 20.6667Z" fill="white"/>
<path d="M22.6667 20.6667C22.6667 21.0349 22.3682 21.3333 22 21.3333C21.6318 21.3333 21.3333 21.0349 21.3333 20.6667C21.3333 20.2985 21.6318 20 22 20C22.3682 20 22.6667 20.2985 22.6667 20.6667Z" fill="white"/>
<path d="M17.3333 20.6667C17.3333 21.0349 17.0349 21.3333 16.6667 21.3333C16.2985 21.3333 16 21.0349 16 20.6667C16 20.2985 16.2985 20 16.6667 20C17.0349 20 17.3333 20.2985 17.3333 20.6667Z" fill="white"/>
<path d="M12 20.6667C12 21.0349 11.7015 21.3333 11.3333 21.3333C10.9651 21.3333 10.6667 21.0349 10.6667 20.6667C10.6667 20.2985 10.9651 20 11.3333 20C11.7015 20 12 20.2985 12 20.6667Z" fill="white"/>
<path d="M6.66666 20.6667C6.66666 21.0349 6.3682 21.3333 6.00001 21.3333C5.63182 21.3333 5.33334 21.0349 5.33334 20.6667C5.33334 20.2985 5.63182 20 6.00001 20C6.3682 20 6.66666 20.2985 6.66666 20.6667Z" fill="white"/>
<path d="M21.3333 20.6667C21.3333 21.0349 21.0349 21.3333 20.6667 21.3333C20.2985 21.3333 20 21.0349 20 20.6667C20 20.2985 20.2985 20 20.6667 20C21.0349 20 21.3333 20.2985 21.3333 20.6667Z" fill="white"/>
<path d="M16 20.6667C16 21.0349 15.7015 21.3333 15.3333 21.3333C14.9651 21.3333 14.6667 21.0349 14.6667 20.6667C14.6667 20.2985 14.9651 20 15.3333 20C15.7015 20 16 20.2985 16 20.6667Z" fill="white"/>
<path d="M10.6667 20.6667C10.6667 21.0349 10.3682 21.3333 10 21.3333C9.63182 21.3333 9.33334 21.0349 9.33334 20.6667C9.33334 20.2985 9.63182 20 10 20C10.3682 20 10.6667 20.2985 10.6667 20.6667Z" fill="white"/>
<path d="M5.33334 20.6667C5.33334 21.0349 5.03486 21.3333 4.66667 21.3333C4.29848 21.3333 4 21.0349 4 20.6667C4 20.2985 4.29848 20 4.66667 20C5.03486 20 5.33334 20.2985 5.33334 20.6667Z" fill="white"/>
<path d="M20 20.6667C20 21.0349 19.7015 21.3333 19.3333 21.3333C18.9651 21.3333 18.6667 21.0349 18.6667 20.6667C18.6667 20.2985 18.9651 20 19.3333 20C19.7015 20 20 20.2985 20 20.6667Z" fill="white"/>
<path d="M14.6667 20.6667C14.6667 21.0349 14.3682 21.3333 14 21.3333C13.6318 21.3333 13.3333 21.0349 13.3333 20.6667C13.3333 20.2985 13.6318 20 14 20C14.3682 20 14.6667 20.2985 14.6667 20.6667Z" fill="white"/>
<path d="M9.33334 20.6667C9.33334 21.0349 9.03486 21.3333 8.66667 21.3333C8.29848 21.3333 7.99999 21.0349 7.99999 20.6667C7.99999 20.2985 8.29848 20 8.66667 20C9.03486 20 9.33334 20.2985 9.33334 20.6667Z" fill="white"/>
<path d="M4 20.6667C4 21.0349 3.70151 21.3333 3.33332 21.3333C2.96513 21.3333 2.66668 21.0349 2.66668 20.6667C2.66668 20.2985 2.96513 20 3.33332 20C3.70151 20 4 20.2985 4 20.6667Z" fill="white"/>
<path d="M24 19.3333C24 19.7015 23.7015 20 23.3333 20C22.9651 20 22.6667 19.7015 22.6667 19.3333C22.6667 18.9651 22.9651 18.6667 23.3333 18.6667C23.7015 18.6667 24 18.9651 24 19.3333Z" fill="white"/>
<path d="M18.6667 19.3333C18.6667 19.7015 18.3682 20 18 20C17.6318 20 17.3333 19.7015 17.3333 19.3333C17.3333 18.9651 17.6318 18.6667 18 18.6667C18.3682 18.6667 18.6667 18.9651 18.6667 19.3333Z" fill="white"/>
<path d="M13.3333 19.3333C13.3333 19.7015 13.0349 20 12.6667 20C12.2985 20 12 19.7015 12 19.3333C12 18.9651 12.2985 18.6667 12.6667 18.6667C13.0349 18.6667 13.3333 18.9651 13.3333 19.3333Z" fill="white"/>
<path d="M7.99999 19.3333C7.99999 19.7015 7.70151 20 7.33332 20C6.96513 20 6.66666 19.7015 6.66666 19.3333C6.66666 18.9651 6.96513 18.6667 7.33332 18.6667C7.70151 18.6667 7.99999 18.9651 7.99999 19.3333Z" fill="white"/>
<path d="M2.66668 19.3333C2.66668 19.7015 2.3682 20 2.00001 20C1.63182 20 1.33334 19.7015 1.33334 19.3333C1.33334 18.9651 1.63182 18.6667 2.00001 18.6667C2.3682 18.6667 2.66668 18.9651 2.66668 19.3333Z" fill="white"/>
<path d="M22.6667 19.3333C22.6667 19.7015 22.3682 20 22 20C21.6318 20 21.3333 19.7015 21.3333 19.3333C21.3333 18.9651 21.6318 18.6667 22 18.6667C22.3682 18.6667 22.6667 18.9651 22.6667 19.3333Z" fill="white"/>
<path d="M17.3333 19.3333C17.3333 19.7015 17.0349 20 16.6667 20C16.2985 20 16 19.7015 16 19.3333C16 18.9651 16.2985 18.6667 16.6667 18.6667C17.0349 18.6667 17.3333 18.9651 17.3333 19.3333Z" fill="white"/>
<path d="M12 19.3333C12 19.7015 11.7015 20 11.3333 20C10.9651 20 10.6667 19.7015 10.6667 19.3333C10.6667 18.9651 10.9651 18.6667 11.3333 18.6667C11.7015 18.6667 12 18.9651 12 19.3333Z" fill="white"/>
<path d="M6.66666 19.3333C6.66666 19.7015 6.3682 20 6.00001 20C5.63182 20 5.33334 19.7015 5.33334 19.3333C5.33334 18.9651 5.63182 18.6667 6.00001 18.6667C6.3682 18.6667 6.66666 18.9651 6.66666 19.3333Z" fill="white"/>
<path d="M1.33334 19.3333C1.33334 19.7015 1.03486 20 0.666667 20C0.298477 20 0 19.7015 0 19.3333C0 18.9651 0.298477 18.6667 0.666667 18.6667C1.03486 18.6667 1.33334 18.9651 1.33334 19.3333Z" fill="white"/>
<path d="M21.3333 19.3333C21.3333 19.7015 21.0349 20 20.6667 20C20.2985 20 20 19.7015 20 19.3333C20 18.9651 20.2985 18.6667 20.6667 18.6667C21.0349 18.6667 21.3333 18.9651 21.3333 19.3333Z" fill="white"/>
<path d="M16 19.3333C16 19.7015 15.7015 20 15.3333 20C14.9651 20 14.6667 19.7015 14.6667 19.3333C14.6667 18.9651 14.9651 18.6667 15.3333 18.6667C15.7015 18.6667 16 18.9651 16 19.3333Z" fill="white"/>
<path d="M10.6667 19.3333C10.6667 19.7015 10.3682 20 10 20C9.63182 20 9.33334 19.7015 9.33334 19.3333C9.33334 18.9651 9.63182 18.6667 10 18.6667C10.3682 18.6667 10.6667 18.9651 10.6667 19.3333Z" fill="white"/>
<path d="M5.33334 19.3333C5.33334 19.7015 5.03486 20 4.66667 20C4.29848 20 4 19.7015 4 19.3333C4 18.9651 4.29848 18.6667 4.66667 18.6667C5.03486 18.6667 5.33334 18.9651 5.33334 19.3333Z" fill="white"/>
<path d="M20 19.3333C20 19.7015 19.7015 20 19.3333 20C18.9651 20 18.6667 19.7015 18.6667 19.3333C18.6667 18.9651 18.9651 18.6667 19.3333 18.6667C19.7015 18.6667 20 18.9651 20 19.3333Z" fill="white"/>
<path d="M14.6667 19.3333C14.6667 19.7015 14.3682 20 14 20C13.6318 20 13.3333 19.7015 13.3333 19.3333C13.3333 18.9651 13.6318 18.6667 14 18.6667C14.3682 18.6667 14.6667 18.9651 14.6667 19.3333Z" fill="white"/>
<path d="M9.33334 19.3333C9.33334 19.7015 9.03486 20 8.66667 20C8.29848 20 7.99999 19.7015 7.99999 19.3333C7.99999 18.9651 8.29848 18.6667 8.66667 18.6667C9.03486 18.6667 9.33334 18.9651 9.33334 19.3333Z" fill="white"/>
<path d="M4 19.3333C4 19.7015 3.70151 20 3.33332 20C2.96513 20 2.66668 19.7015 2.66668 19.3333C2.66668 18.9651 2.96513 18.6667 3.33332 18.6667C3.70151 18.6667 4 18.9651 4 19.3333Z" fill="white"/>
<path d="M24 18C24 18.3682 23.7015 18.6667 23.3333 18.6667C22.9651 18.6667 22.6667 18.3682 22.6667 18C22.6667 17.6318 22.9651 17.3333 23.3333 17.3333C23.7015 17.3333 24 17.6318 24 18Z" fill="white"/>
<path d="M5.33333 18C5.33333 18.3682 5.03486 18.6667 4.66667 18.6667C4.29848 18.6667 4 18.3682 4 18C4 17.6318 4.29848 17.3333 4.66667 17.3333C5.03486 17.3333 5.33333 17.6318 5.33333 18Z" fill="white"/>
<path d="M22.6667 18C22.6667 18.3682 22.3682 18.6667 22 18.6667C21.6318 18.6667 21.3333 18.3682 21.3333 18C21.3333 17.6318 21.6318 17.3333 22 17.3333C22.3682 17.3333 22.6667 17.6318 22.6667 18Z" fill="white"/>
<path d="M4 18C4 18.3682 3.70151 18.6667 3.33332 18.6667C2.96513 18.6667 2.66666 18.3682 2.66666 18C2.66666 17.6318 2.96513 17.3333 3.33332 17.3333C3.70151 17.3333 4 17.6318 4 18Z" fill="white"/>
<path d="M21.3333 18C21.3333 18.3682 21.0349 18.6667 20.6667 18.6667C20.2985 18.6667 20 18.3682 20 18C20 17.6318 20.2985 17.3333 20.6667 17.3333C21.0349 17.3333 21.3333 17.6318 21.3333 18Z" fill="white"/>
<path d="M2.66666 18C2.66666 18.3682 2.3682 18.6667 2.00001 18.6667C1.63182 18.6667 1.33334 18.3682 1.33334 18C1.33334 17.6318 1.63182 17.3333 2.00001 17.3333C2.3682 17.3333 2.66666 17.6318 2.66666 18Z" fill="white"/>
<path d="M20 18C20 18.3682 19.7015 18.6667 19.3333 18.6667C18.9651 18.6667 18.6667 18.3682 18.6667 18C18.6667 17.6318 18.9651 17.3333 19.3333 17.3333C19.7015 17.3333 20 17.6318 20 18Z" fill="white"/>
<path d="M1.33334 18C1.33334 18.3682 1.03486 18.6667 0.666667 18.6667C0.298477 18.6667 0 18.3682 0 18C0 17.6318 0.298477 17.3333 0.666667 17.3333C1.03486 17.3333 1.33334 17.6318 1.33334 18Z" fill="white"/>
<path d="M24 16.6667C24 17.0349 23.7015 17.3333 23.3333 17.3333C22.9651 17.3333 22.6667 17.0349 22.6667 16.6667C22.6667 16.2985 22.9651 16 23.3333 16C23.7015 16 24 16.2985 24 16.6667Z" fill="white"/>
<path d="M5.33333 16.6667C5.33333 17.0349 5.03486 17.3333 4.66667 17.3333C4.29848 17.3333 4 17.0349 4 16.6667C4 16.2985 4.29848 16 4.66667 16C5.03486 16 5.33333 16.2985 5.33333 16.6667Z" fill="white"/>
<path d="M22.6667 16.6667C22.6667 17.0349 22.3682 17.3333 22 17.3333C21.6318 17.3333 21.3333 17.0349 21.3333 16.6667C21.3333 16.2985 21.6318 16 22 16C22.3682 16 22.6667 16.2985 22.6667 16.6667Z" fill="white"/>
<path d="M4 16.6667C4 17.0349 3.70151 17.3333 3.33332 17.3333C2.96513 17.3333 2.66666 17.0349 2.66666 16.6667C2.66666 16.2985 2.96513 16 3.33332 16C3.70151 16 4 16.2985 4 16.6667Z" fill="white"/>
<path d="M21.3333 16.6667C21.3333 17.0349 21.0349 17.3333 20.6667 17.3333C20.2985 17.3333 20 17.0349 20 16.6667C20 16.2985 20.2985 16 20.6667 16C21.0349 16 21.3333 16.2985 21.3333 16.6667Z" fill="white"/>
<path d="M2.66666 16.6667C2.66666 17.0349 2.3682 17.3333 2.00001 17.3333C1.63182 17.3333 1.33334 17.0349 1.33334 16.6667C1.33334 16.2985 1.63182 16 2.00001 16C2.3682 16 2.66666 16.2985 2.66666 16.6667Z" fill="white"/>
<path d="M20 16.6667C20 17.0349 19.7015 17.3333 19.3333 17.3333C18.9651 17.3333 18.6667 17.0349 18.6667 16.6667C18.6667 16.2985 18.9651 16 19.3333 16C19.7015 16 20 16.2985 20 16.6667Z" fill="white"/>
<path d="M1.33334 16.6667C1.33334 17.0349 1.03486 17.3333 0.666667 17.3333C0.298477 17.3333 0 17.0349 0 16.6667C0 16.2985 0.298477 16 0.666667 16C1.03486 16 1.33334 16.2985 1.33334 16.6667Z" fill="white"/>
<path d="M24 15.3333C24 15.7015 23.7015 16 23.3333 16C22.9651 16 22.6667 15.7015 22.6667 15.3333C22.6667 14.9651 22.9651 14.6667 23.3333 14.6667C23.7015 14.6667 24 14.9651 24 15.3333Z" fill="white"/>
<path d="M5.33333 15.3333C5.33333 15.7015 5.03486 16 4.66667 16C4.29848 16 4 15.7015 4 15.3333C4 14.9651 4.29848 14.6667 4.66667 14.6667C5.03486 14.6667 5.33333 14.9651 5.33333 15.3333Z" fill="white"/>
<path d="M22.6667 15.3333C22.6667 15.7015 22.3682 16 22 16C21.6318 16 21.3333 15.7015 21.3333 15.3333C21.3333 14.9651 21.6318 14.6667 22 14.6667C22.3682 14.6667 22.6667 14.9651 22.6667 15.3333Z" fill="white"/>
<path d="M4 15.3333C4 15.7015 3.70151 16 3.33332 16C2.96513 16 2.66666 15.7015 2.66666 15.3333C2.66666 14.9651 2.96513 14.6667 3.33332 14.6667C3.70151 14.6667 4 14.9651 4 15.3333Z" fill="white"/>
<path d="M21.3333 15.3333C21.3333 15.7015 21.0349 16 20.6667 16C20.2985 16 20 15.7015 20 15.3333C20 14.9651 20.2985 14.6667 20.6667 14.6667C21.0349 14.6667 21.3333 14.9651 21.3333 15.3333Z" fill="white"/>
<path d="M2.66666 15.3333C2.66666 15.7015 2.3682 16 2.00001 16C1.63182 16 1.33334 15.7015 1.33334 15.3333C1.33334 14.9651 1.63182 14.6667 2.00001 14.6667C2.3682 14.6667 2.66666 14.9651 2.66666 15.3333Z" fill="white"/>
<path d="M20 15.3333C20 15.7015 19.7015 16 19.3333 16C18.9651 16 18.6667 15.7015 18.6667 15.3333C18.6667 14.9651 18.9651 14.6667 19.3333 14.6667C19.7015 14.6667 20 14.9651 20 15.3333Z" fill="white"/>
<path d="M1.33334 15.3333C1.33334 15.7015 1.03486 16 0.666667 16C0.298477 16 0 15.7015 0 15.3333C0 14.9651 0.298477 14.6667 0.666667 14.6667C1.03486 14.6667 1.33334 14.9651 1.33334 15.3333Z" fill="white"/>
<path d="M24 14C24 14.3682 23.7015 14.6667 23.3333 14.6667C22.9651 14.6667 22.6667 14.3682 22.6667 14C22.6667 13.6318 22.9651 13.3333 23.3333 13.3333C23.7015 13.3333 24 13.6318 24 14Z" fill="white"/>
<path d="M5.33333 14C5.33333 14.3682 5.03486 14.6667 4.66667 14.6667C4.29848 14.6667 4 14.3682 4 14C4 13.6318 4.29848 13.3333 4.66667 13.3333C5.03486 13.3333 5.33333 13.6318 5.33333 14Z" fill="white"/>
<path d="M22.6667 14C22.6667 14.3682 22.3682 14.6667 22 14.6667C21.6318 14.6667 21.3333 14.3682 21.3333 14C21.3333 13.6318 21.6318 13.3333 22 13.3333C22.3682 13.3333 22.6667 13.6318 22.6667 14Z" fill="white"/>
<path d="M4 14C4 14.3682 3.70151 14.6667 3.33332 14.6667C2.96513 14.6667 2.66666 14.3682 2.66666 14C2.66666 13.6318 2.96513 13.3333 3.33332 13.3333C3.70151 13.3333 4 13.6318 4 14Z" fill="white"/>
<path d="M21.3333 14C21.3333 14.3682 21.0349 14.6667 20.6667 14.6667C20.2985 14.6667 20 14.3682 20 14C20 13.6318 20.2985 13.3333 20.6667 13.3333C21.0349 13.3333 21.3333 13.6318 21.3333 14Z" fill="white"/>
<path d="M2.66666 14C2.66666 14.3682 2.3682 14.6667 2.00001 14.6667C1.63182 14.6667 1.33334 14.3682 1.33334 14C1.33334 13.6318 1.63182 13.3333 2.00001 13.3333C2.3682 13.3333 2.66666 13.6318 2.66666 14Z" fill="white"/>
<path d="M20 14C20 14.3682 19.7015 14.6667 19.3333 14.6667C18.9651 14.6667 18.6667 14.3682 18.6667 14C18.6667 13.6318 18.9651 13.3333 19.3333 13.3333C19.7015 13.3333 20 13.6318 20 14Z" fill="white"/>
<path d="M1.33334 14C1.33334 14.3682 1.03486 14.6667 0.666667 14.6667C0.298477 14.6667 0 14.3682 0 14C0 13.6318 0.298477 13.3333 0.666667 13.3333C1.03486 13.3333 1.33334 13.6318 1.33334 14Z" fill="white"/>
<path d="M24 12.6667C24 13.0349 23.7015 13.3333 23.3333 13.3333C22.9651 13.3333 22.6667 13.0349 22.6667 12.6667C22.6667 12.2985 22.9651 12 23.3333 12C23.7015 12 24 12.2985 24 12.6667Z" fill="white"/>
<path d="M5.33333 12.6667C5.33333 13.0349 5.03486 13.3333 4.66667 13.3333C4.29848 13.3333 4 13.0349 4 12.6667C4 12.2985 4.29848 12 4.66667 12C5.03486 12 5.33333 12.2985 5.33333 12.6667Z" fill="white"/>
<path d="M22.6667 12.6667C22.6667 13.0349 22.3682 13.3333 22 13.3333C21.6318 13.3333 21.3333 13.0349 21.3333 12.6667C21.3333 12.2985 21.6318 12 22 12C22.3682 12 22.6667 12.2985 22.6667 12.6667Z" fill="white"/>
<path d="M4 12.6667C4 13.0349 3.70151 13.3333 3.33332 13.3333C2.96513 13.3333 2.66666 13.0349 2.66666 12.6667C2.66666 12.2985 2.96513 12 3.33332 12C3.70151 12 4 12.2985 4 12.6667Z" fill="white"/>
<path d="M21.3333 12.6667C21.3333 13.0349 21.0349 13.3333 20.6667 13.3333C20.2985 13.3333 20 13.0349 20 12.6667C20 12.2985 20.2985 12 20.6667 12C21.0349 12 21.3333 12.2985 21.3333 12.6667Z" fill="white"/>
<path d="M2.66666 12.6667C2.66666 13.0349 2.3682 13.3333 2.00001 13.3333C1.63182 13.3333 1.33334 13.0349 1.33334 12.6667C1.33334 12.2985 1.63182 12 2.00001 12C2.3682 12 2.66666 12.2985 2.66666 12.6667Z" fill="white"/>
<path d="M20 12.6667C20 13.0349 19.7015 13.3333 19.3333 13.3333C18.9651 13.3333 18.6667 13.0349 18.6667 12.6667C18.6667 12.2985 18.9651 12 19.3333 12C19.7015 12 20 12.2985 20 12.6667Z" fill="white"/>
<path d="M1.33334 12.6667C1.33334 13.0349 1.03486 13.3333 0.666667 13.3333C0.298477 13.3333 0 13.0349 0 12.6667C0 12.2985 0.298477 12 0.666667 12C1.03486 12 1.33334 12.2985 1.33334 12.6667Z" fill="white"/>
<path d="M24 11.3333C24 11.7015 23.7015 12 23.3333 12C22.9651 12 22.6667 11.7015 22.6667 11.3333C22.6667 10.9651 22.9651 10.6667 23.3333 10.6667C23.7015 10.6667 24 10.9651 24 11.3333Z" fill="white"/>
<path d="M5.33333 11.3333C5.33333 11.7015 5.03486 12 4.66667 12C4.29848 12 4 11.7015 4 11.3333C4 10.9651 4.29848 10.6667 4.66667 10.6667C5.03486 10.6667 5.33333 10.9651 5.33333 11.3333Z" fill="white"/>
<path d="M22.6667 11.3333C22.6667 11.7015 22.3682 12 22 12C21.6318 12 21.3333 11.7015 21.3333 11.3333C21.3333 10.9651 21.6318 10.6667 22 10.6667C22.3682 10.6667 22.6667 10.9651 22.6667 11.3333Z" fill="white"/>
<path d="M4 11.3333C4 11.7015 3.70151 12 3.33332 12C2.96513 12 2.66666 11.7015 2.66666 11.3333C2.66666 10.9651 2.96513 10.6667 3.33332 10.6667C3.70151 10.6667 4 10.9651 4 11.3333Z" fill="white"/>
<path d="M21.3333 11.3333C21.3333 11.7015 21.0349 12 20.6667 12C20.2985 12 20 11.7015 20 11.3333C20 10.9651 20.2985 10.6667 20.6667 10.6667C21.0349 10.6667 21.3333 10.9651 21.3333 11.3333Z" fill="white"/>
<path d="M2.66666 11.3333C2.66666 11.7015 2.3682 12 2.00001 12C1.63182 12 1.33334 11.7015 1.33334 11.3333C1.33334 10.9651 1.63182 10.6667 2.00001 10.6667C2.3682 10.6667 2.66666 10.9651 2.66666 11.3333Z" fill="white"/>
<path d="M20 11.3333C20 11.7015 19.7015 12 19.3333 12C18.9651 12 18.6667 11.7015 18.6667 11.3333C18.6667 10.9651 18.9651 10.6667 19.3333 10.6667C19.7015 10.6667 20 10.9651 20 11.3333Z" fill="white"/>
<path d="M1.33334 11.3333C1.33334 11.7015 1.03486 12 0.666667 12C0.298477 12 0 11.7015 0 11.3333C0 10.9651 0.298477 10.6667 0.666667 10.6667C1.03486 10.6667 1.33334 10.9651 1.33334 11.3333Z" fill="white"/>
<path d="M24 10C24 10.3682 23.7015 10.6667 23.3333 10.6667C22.9651 10.6667 22.6667 10.3682 22.6667 10C22.6667 9.63182 22.9651 9.33334 23.3333 9.33334C23.7015 9.33334 24 9.63182 24 10Z" fill="white"/>
<path d="M5.33333 10C5.33333 10.3682 5.03486 10.6667 4.66667 10.6667C4.29848 10.6667 4 10.3682 4 10C4 9.63182 4.29848 9.33334 4.66667 9.33334C5.03486 9.33334 5.33333 9.63182 5.33333 10Z" fill="white"/>
<path d="M22.6667 10C22.6667 10.3682 22.3682 10.6667 22 10.6667C21.6318 10.6667 21.3333 10.3682 21.3333 10C21.3333 9.63182 21.6318 9.33334 22 9.33334C22.3682 9.33334 22.6667 9.63182 22.6667 10Z" fill="white"/>
<path d="M4 10C4 10.3682 3.70151 10.6667 3.33332 10.6667C2.96513 10.6667 2.66666 10.3682 2.66666 10C2.66666 9.63182 2.96513 9.33334 3.33332 9.33334C3.70151 9.33334 4 9.63182 4 10Z" fill="white"/>
<path d="M21.3333 10C21.3333 10.3682 21.0349 10.6667 20.6667 10.6667C20.2985 10.6667 20 10.3682 20 10C20 9.63182 20.2985 9.33334 20.6667 9.33334C21.0349 9.33334 21.3333 9.63182 21.3333 10Z" fill="white"/>
<path d="M2.66666 10C2.66666 10.3682 2.3682 10.6667 2.00001 10.6667C1.63182 10.6667 1.33334 10.3682 1.33334 10C1.33334 9.63182 1.63182 9.33334 2.00001 9.33334C2.3682 9.33334 2.66666 9.63182 2.66666 10Z" fill="white"/>
<path d="M20 10C20 10.3682 19.7015 10.6667 19.3333 10.6667C18.9651 10.6667 18.6667 10.3682 18.6667 10C18.6667 9.63182 18.9651 9.33334 19.3333 9.33334C19.7015 9.33334 20 9.63182 20 10Z" fill="white"/>
<path d="M1.33334 10C1.33334 10.3682 1.03486 10.6667 0.666667 10.6667C0.298477 10.6667 0 10.3682 0 10C0 9.63182 0.298477 9.33334 0.666667 9.33334C1.03486 9.33334 1.33334 9.63182 1.33334 10Z" fill="white"/>
<path d="M24 8.66667C24 9.03486 23.7015 9.33334 23.3333 9.33334C22.9651 9.33334 22.6667 9.03486 22.6667 8.66667C22.6667 8.29848 22.9651 8 23.3333 8C23.7015 8 24 8.29848 24 8.66667Z" fill="white"/>
<path d="M5.33333 8.66667C5.33333 9.03486 5.03486 9.33334 4.66667 9.33334C4.29848 9.33334 4 9.03486 4 8.66667C4 8.29848 4.29848 8 4.66667 8C5.03486 8 5.33333 8.29848 5.33333 8.66667Z" fill="white"/>
<path d="M22.6667 8.66667C22.6667 9.03486 22.3682 9.33334 22 9.33334C21.6318 9.33334 21.3333 9.03486 21.3333 8.66667C21.3333 8.29848 21.6318 8 22 8C22.3682 8 22.6667 8.29848 22.6667 8.66667Z" fill="white"/>
<path d="M4 8.66667C4 9.03486 3.70151 9.33334 3.33332 9.33334C2.96513 9.33334 2.66666 9.03486 2.66666 8.66667C2.66666 8.29848 2.96513 8 3.33332 8C3.70151 8 4 8.29848 4 8.66667Z" fill="white"/>
<path d="M21.3333 8.66667C21.3333 9.03486 21.0349 9.33334 20.6667 9.33334C20.2985 9.33334 20 9.03486 20 8.66667C20 8.29848 20.2985 8 20.6667 8C21.0349 8 21.3333 8.29848 21.3333 8.66667Z" fill="white"/>
<path d="M2.66666 8.66667C2.66666 9.03486 2.3682 9.33334 2.00001 9.33334C1.63182 9.33334 1.33334 9.03486 1.33334 8.66667C1.33334 8.29848 1.63182 8 2.00001 8C2.3682 8 2.66666 8.29848 2.66666 8.66667Z" fill="white"/>
<path d="M20 8.66667C20 9.03486 19.7015 9.33334 19.3333 9.33334C18.9651 9.33334 18.6667 9.03486 18.6667 8.66667C18.6667 8.29848 18.9651 8 19.3333 8C19.7015 8 20 8.29848 20 8.66667Z" fill="white"/>
<path d="M1.33334 8.66667C1.33334 9.03486 1.03486 9.33334 0.666667 9.33334C0.298477 9.33334 0 9.03486 0 8.66667C0 8.29848 0.298477 8 0.666667 8C1.03486 8 1.33334 8.29848 1.33334 8.66667Z" fill="white"/>
<path d="M24 7.33332C24 7.70151 23.7015 8 23.3333 8C22.9651 8 22.6667 7.70151 22.6667 7.33332C22.6667 6.96513 22.9651 6.66666 23.3333 6.66666C23.7015 6.66666 24 6.96513 24 7.33332Z" fill="white"/>
<path d="M5.33333 7.33332C5.33333 7.70151 5.03486 8 4.66667 8C4.29848 8 4 7.70151 4 7.33332C4 6.96513 4.29848 6.66666 4.66667 6.66666C5.03486 6.66666 5.33333 6.96513 5.33333 7.33332Z" fill="white"/>
<path d="M22.6667 7.33332C22.6667 7.70151 22.3682 8 22 8C21.6318 8 21.3333 7.70151 21.3333 7.33332C21.3333 6.96513 21.6318 6.66666 22 6.66666C22.3682 6.66666 22.6667 6.96513 22.6667 7.33332Z" fill="white"/>
<path d="M4 7.33332C4 7.70151 3.70151 8 3.33332 8C2.96513 8 2.66666 7.70151 2.66666 7.33332C2.66666 6.96513 2.96513 6.66666 3.33332 6.66666C3.70151 6.66666 4 6.96513 4 7.33332Z" fill="white"/>
<path d="M21.3333 7.33332C21.3333 7.70151 21.0349 8 20.6667 8C20.2985 8 20 7.70151 20 7.33332C20 6.96513 20.2985 6.66666 20.6667 6.66666C21.0349 6.66666 21.3333 6.96513 21.3333 7.33332Z" fill="white"/>
<path d="M2.66666 7.33332C2.66666 7.70151 2.3682 8 2.00001 8C1.63182 8 1.33334 7.70151 1.33334 7.33332C1.33334 6.96513 1.63182 6.66666 2.00001 6.66666C2.3682 6.66666 2.66666 6.96513 2.66666 7.33332Z" fill="white"/>
<path d="M20 7.33332C20 7.70151 19.7015 8 19.3333 8C18.9651 8 18.6667 7.70151 18.6667 7.33332C18.6667 6.96513 18.9651 6.66666 19.3333 6.66666C19.7015 6.66666 20 6.96513 20 7.33332Z" fill="white"/>
<path d="M24 6.00001C24 6.3682 23.7015 6.66666 23.3333 6.66666C22.9651 6.66666 22.6667 6.3682 22.6667 6.00001C22.6667 5.63182 22.9651 5.33334 23.3333 5.33334C23.7015 5.33334 24 5.63182 24 6.00001Z" fill="white"/>
<path d="M5.33333 6.00001C5.33333 6.3682 5.03486 6.66666 4.66667 6.66666C4.29848 6.66666 4 6.3682 4 6.00001C4 5.63182 4.29848 5.33334 4.66667 5.33334C5.03486 5.33334 5.33333 5.63182 5.33333 6.00001Z" fill="white"/>
<path d="M22.6667 6.00001C22.6667 6.3682 22.3682 6.66666 22 6.66666C21.6318 6.66666 21.3333 6.3682 21.3333 6.00001C21.3333 5.63182 21.6318 5.33334 22 5.33334C22.3682 5.33334 22.6667 5.63182 22.6667 6.00001Z" fill="white"/>
<path d="M4 6.00001C4 6.3682 3.70151 6.66666 3.33332 6.66666C2.96513 6.66666 2.66666 6.3682 2.66666 6.00001C2.66666 5.63182 2.96513 5.33334 3.33332 5.33334C3.70151 5.33334 4 5.63182 4 6.00001Z" fill="white"/>
<path d="M21.3333 6.00001C21.3333 6.3682 21.0349 6.66666 20.6667 6.66666C20.2985 6.66666 20 6.3682 20 6.00001C20 5.63182 20.2985 5.33334 20.6667 5.33334C21.0349 5.33334 21.3333 5.63182 21.3333 6.00001Z" fill="white"/>
<path d="M20 6.00001C20 6.3682 19.7015 6.66666 19.3333 6.66666C18.9651 6.66666 18.6667 6.3682 18.6667 6.00001C18.6667 5.63182 18.9651 5.33334 19.3333 5.33334C19.7015 5.33334 20 5.63182 20 6.00001Z" fill="white"/>
<path d="M24 4.66667C24 5.03486 23.7015 5.33334 23.3333 5.33334C22.9651 5.33334 22.6667 5.03486 22.6667 4.66667C22.6667 4.29848 22.9651 4 23.3333 4C23.7015 4 24 4.29848 24 4.66667Z" fill="white"/>
<path d="M18.6667 4.66667C18.6667 5.03486 18.3682 5.33333 18 5.33333C17.6318 5.33333 17.3333 5.03486 17.3333 4.66667C17.3333 4.29848 17.6318 4 18 4C18.3682 4 18.6667 4.29848 18.6667 4.66667Z" fill="white"/>
<path d="M13.3333 4.66667C13.3333 5.03486 13.0349 5.33333 12.6667 5.33333C12.2985 5.33333 12 5.03486 12 4.66667C12 4.29848 12.2985 4 12.6667 4C13.0349 4 13.3333 4.29848 13.3333 4.66667Z" fill="white"/>
<path d="M7.99999 4.66667C7.99999 5.03486 7.70151 5.33333 7.33332 5.33333C6.96513 5.33333 6.66666 5.03486 6.66666 4.66667C6.66666 4.29848 6.96513 4 7.33332 4C7.70151 4 7.99999 4.29848 7.99999 4.66667Z" fill="white"/>
<path d="M22.6667 4.66667C22.6667 5.03486 22.3682 5.33334 22 5.33334C21.6318 5.33334 21.3333 5.03486 21.3333 4.66667C21.3333 4.29848 21.6318 4 22 4C22.3682 4 22.6667 4.29848 22.6667 4.66667Z" fill="white"/>
<path d="M17.3333 4.66667C17.3333 5.03486 17.0349 5.33333 16.6667 5.33333C16.2985 5.33333 16 5.03486 16 4.66667C16 4.29848 16.2985 4 16.6667 4C17.0349 4 17.3333 4.29848 17.3333 4.66667Z" fill="white"/>
<path d="M12 4.66667C12 5.03486 11.7015 5.33333 11.3333 5.33333C10.9651 5.33333 10.6667 5.03486 10.6667 4.66667C10.6667 4.29848 10.9651 4 11.3333 4C11.7015 4 12 4.29848 12 4.66667Z" fill="white"/>
<path d="M6.66666 4.66667C6.66666 5.03486 6.3682 5.33333 6.00001 5.33333C5.63182 5.33333 5.33334 5.03486 5.33334 4.66667C5.33334 4.29848 5.63182 4 6.00001 4C6.3682 4 6.66666 4.29848 6.66666 4.66667Z" fill="white"/>
<path d="M21.3333 4.66667C21.3333 5.03486 21.0349 5.33334 20.6667 5.33334C20.2985 5.33334 20 5.03486 20 4.66667C20 4.29848 20.2985 4 20.6667 4C21.0349 4 21.3333 4.29848 21.3333 4.66667Z" fill="white"/>
<path d="M16 4.66667C16 5.03486 15.7015 5.33333 15.3333 5.33333C14.9651 5.33333 14.6667 5.03486 14.6667 4.66667C14.6667 4.29848 14.9651 4 15.3333 4C15.7015 4 16 4.29848 16 4.66667Z" fill="white"/>
<path d="M10.6667 4.66667C10.6667 5.03486 10.3682 5.33333 10 5.33333C9.63182 5.33333 9.33334 5.03486 9.33334 4.66667C9.33334 4.29848 9.63182 4 10 4C10.3682 4 10.6667 4.29848 10.6667 4.66667Z" fill="white"/>
<path d="M5.33334 4.66667C5.33334 5.03486 5.03486 5.33334 4.66667 5.33334C4.29848 5.33334 4 5.03486 4 4.66667C4 4.29848 4.29848 4 4.66667 4C5.03486 4 5.33334 4.29848 5.33334 4.66667Z" fill="white"/>
<path d="M20 4.66667C20 5.03486 19.7015 5.33334 19.3333 5.33334C18.9651 5.33334 18.6667 5.03486 18.6667 4.66667C18.6667 4.29848 18.9651 4 19.3333 4C19.7015 4 20 4.29848 20 4.66667Z" fill="white"/>
<path d="M14.6667 4.66667C14.6667 5.03486 14.3682 5.33333 14 5.33333C13.6318 5.33333 13.3333 5.03486 13.3333 4.66667C13.3333 4.29848 13.6318 4 14 4C14.3682 4 14.6667 4.29848 14.6667 4.66667Z" fill="white"/>
<path d="M9.33334 4.66667C9.33334 5.03486 9.03486 5.33333 8.66667 5.33333C8.29848 5.33333 7.99999 5.03486 7.99999 4.66667C7.99999 4.29848 8.29848 4 8.66667 4C9.03486 4 9.33334 4.29848 9.33334 4.66667Z" fill="white"/>
<path d="M24 3.33332C24 3.70151 23.7015 4 23.3333 4C22.9651 4 22.6667 3.70151 22.6667 3.33332C22.6667 2.96513 22.9651 2.66666 23.3333 2.66666C23.7015 2.66666 24 2.96513 24 3.33332Z" fill="white"/>
<path d="M18.6667 3.33332C18.6667 3.70151 18.3682 4 18 4C17.6318 4 17.3333 3.70151 17.3333 3.33332C17.3333 2.96513 17.6318 2.66666 18 2.66666C18.3682 2.66666 18.6667 2.96513 18.6667 3.33332Z" fill="white"/>
<path d="M13.3333 3.33332C13.3333 3.70151 13.0349 4 12.6667 4C12.2985 4 12 3.70151 12 3.33332C12 2.96513 12.2985 2.66666 12.6667 2.66666C13.0349 2.66666 13.3333 2.96513 13.3333 3.33332Z" fill="white"/>
<path d="M7.99999 3.33332C7.99999 3.70151 7.70151 4 7.33332 4C6.96513 4 6.66666 3.70151 6.66666 3.33332C6.66666 2.96513 6.96513 2.66666 7.33332 2.66666C7.70151 2.66666 7.99999 2.96513 7.99999 3.33332Z" fill="white"/>
<path d="M22.6667 3.33332C22.6667 3.70151 22.3682 4 22 4C21.6318 4 21.3333 3.70151 21.3333 3.33332C21.3333 2.96513 21.6318 2.66666 22 2.66666C22.3682 2.66666 22.6667 2.96513 22.6667 3.33332Z" fill="white"/>
<path d="M17.3333 3.33332C17.3333 3.70151 17.0349 4 16.6667 4C16.2985 4 16 3.70151 16 3.33332C16 2.96513 16.2985 2.66666 16.6667 2.66666C17.0349 2.66666 17.3333 2.96513 17.3333 3.33332Z" fill="white"/>
<path d="M12 3.33332C12 3.70151 11.7015 4 11.3333 4C10.9651 4 10.6667 3.70151 10.6667 3.33332C10.6667 2.96513 10.9651 2.66666 11.3333 2.66666C11.7015 2.66666 12 2.96513 12 3.33332Z" fill="white"/>
<path d="M6.66666 3.33332C6.66666 3.70151 6.3682 4 6.00001 4C5.63182 4 5.33334 3.70151 5.33334 3.33332C5.33334 2.96513 5.63182 2.66666 6.00001 2.66666C6.3682 2.66666 6.66666 2.96513 6.66666 3.33332Z" fill="white"/>
<path d="M21.3333 3.33332C21.3333 3.70151 21.0349 4 20.6667 4C20.2985 4 20 3.70151 20 3.33332C20 2.96513 20.2985 2.66666 20.6667 2.66666C21.0349 2.66666 21.3333 2.96513 21.3333 3.33332Z" fill="white"/>
<path d="M16 3.33332C16 3.70151 15.7015 4 15.3333 4C14.9651 4 14.6667 3.70151 14.6667 3.33332C14.6667 2.96513 14.9651 2.66666 15.3333 2.66666C15.7015 2.66666 16 2.96513 16 3.33332Z" fill="white"/>
<path d="M10.6667 3.33332C10.6667 3.70151 10.3682 4 10 4C9.63182 4 9.33334 3.70151 9.33334 3.33332C9.33334 2.96513 9.63182 2.66666 10 2.66666C10.3682 2.66666 10.6667 2.96513 10.6667 3.33332Z" fill="white"/>
<path d="M20 3.33332C20 3.70151 19.7015 4 19.3333 4C18.9651 4 18.6667 3.70151 18.6667 3.33332C18.6667 2.96513 18.9651 2.66666 19.3333 2.66666C19.7015 2.66666 20 2.96513 20 3.33332Z" fill="white"/>
<path d="M14.6667 3.33332C14.6667 3.70151 14.3682 4 14 4C13.6318 4 13.3333 3.70151 13.3333 3.33332C13.3333 2.96513 13.6318 2.66666 14 2.66666C14.3682 2.66666 14.6667 2.96513 14.6667 3.33332Z" fill="white"/>
<path d="M9.33334 3.33332C9.33334 3.70151 9.03486 4 8.66667 4C8.29848 4 7.99999 3.70151 7.99999 3.33332C7.99999 2.96513 8.29848 2.66666 8.66667 2.66666C9.03486 2.66666 9.33334 2.96513 9.33334 3.33332Z" fill="white"/>
<path d="M24 2.00001C24 2.3682 23.7015 2.66666 23.3333 2.66666C22.9651 2.66666 22.6667 2.3682 22.6667 2.00001C22.6667 1.63182 22.9651 1.33334 23.3333 1.33334C23.7015 1.33334 24 1.63182 24 2.00001Z" fill="white"/>
<path d="M18.6667 2.00001C18.6667 2.3682 18.3682 2.66666 18 2.66666C17.6318 2.66666 17.3333 2.3682 17.3333 2.00001C17.3333 1.63182 17.6318 1.33334 18 1.33334C18.3682 1.33334 18.6667 1.63182 18.6667 2.00001Z" fill="white"/>
<path d="M13.3333 2.00001C13.3333 2.3682 13.0349 2.66666 12.6667 2.66666C12.2985 2.66666 12 2.3682 12 2.00001C12 1.63182 12.2985 1.33334 12.6667 1.33334C13.0349 1.33334 13.3333 1.63182 13.3333 2.00001Z" fill="white"/>
<path d="M7.99999 2.00001C7.99999 2.3682 7.70151 2.66666 7.33332 2.66666C6.96513 2.66666 6.66666 2.3682 6.66666 2.00001C6.66666 1.63182 6.96513 1.33334 7.33332 1.33334C7.70151 1.33334 7.99999 1.63182 7.99999 2.00001Z" fill="white"/>
<path d="M22.6667 2.00001C22.6667 2.3682 22.3682 2.66666 22 2.66666C21.6318 2.66666 21.3333 2.3682 21.3333 2.00001C21.3333 1.63182 21.6318 1.33334 22 1.33334C22.3682 1.33334 22.6667 1.63182 22.6667 2.00001Z" fill="white"/>
<path d="M17.3333 2.00001C17.3333 2.3682 17.0349 2.66666 16.6667 2.66666C16.2985 2.66666 16 2.3682 16 2.00001C16 1.63182 16.2985 1.33334 16.6667 1.33334C17.0349 1.33334 17.3333 1.63182 17.3333 2.00001Z" fill="white"/>
<path d="M12 2.00001C12 2.3682 11.7015 2.66666 11.3333 2.66666C10.9651 2.66666 10.6667 2.3682 10.6667 2.00001C10.6667 1.63182 10.9651 1.33334 11.3333 1.33334C11.7015 1.33334 12 1.63182 12 2.00001Z" fill="white"/>
<path d="M21.3333 2.00001C21.3333 2.3682 21.0349 2.66666 20.6667 2.66666C20.2985 2.66666 20 2.3682 20 2.00001C20 1.63182 20.2985 1.33334 20.6667 1.33334C21.0349 1.33334 21.3333 1.63182 21.3333 2.00001Z" fill="white"/>
<path d="M16 2.00001C16 2.3682 15.7015 2.66666 15.3333 2.66666C14.9651 2.66666 14.6667 2.3682 14.6667 2.00001C14.6667 1.63182 14.9651 1.33334 15.3333 1.33334C15.7015 1.33334 16 1.63182 16 2.00001Z" fill="white"/>
<path d="M10.6667 2.00001C10.6667 2.3682 10.3682 2.66666 10 2.66666C9.63182 2.66666 9.33334 2.3682 9.33334 2.00001C9.33334 1.63182 9.63182 1.33334 10 1.33334C10.3682 1.33334 10.6667 1.63182 10.6667 2.00001Z" fill="white"/>
<path d="M20 2.00001C20 2.3682 19.7015 2.66666 19.3333 2.66666C18.9651 2.66666 18.6667 2.3682 18.6667 2.00001C18.6667 1.63182 18.9651 1.33334 19.3333 1.33334C19.7015 1.33334 20 1.63182 20 2.00001Z" fill="white"/>
<path d="M14.6667 2.00001C14.6667 2.3682 14.3682 2.66666 14 2.66666C13.6318 2.66666 13.3333 2.3682 13.3333 2.00001C13.3333 1.63182 13.6318 1.33334 14 1.33334C14.3682 1.33334 14.6667 1.63182 14.6667 2.00001Z" fill="white"/>
<path d="M9.33334 2.00001C9.33334 2.3682 9.03486 2.66666 8.66667 2.66666C8.29848 2.66666 7.99999 2.3682 7.99999 2.00001C7.99999 1.63182 8.29848 1.33334 8.66667 1.33334C9.03486 1.33334 9.33334 1.63182 9.33334 2.00001Z" fill="white"/>
<path d="M24 0.666667C24 1.03486 23.7015 1.33334 23.3333 1.33334C22.9651 1.33334 22.6667 1.03486 22.6667 0.666667C22.6667 0.298477 22.9651 0 23.3333 0C23.7015 0 24 0.298477 24 0.666667Z" fill="white"/>
<path d="M18.6667 0.666667C18.6667 1.03486 18.3682 1.33334 18 1.33334C17.6318 1.33334 17.3333 1.03486 17.3333 0.666667C17.3333 0.298477 17.6318 0 18 0C18.3682 0 18.6667 0.298477 18.6667 0.666667Z" fill="white"/>
<path d="M13.3333 0.666667C13.3333 1.03486 13.0349 1.33334 12.6667 1.33334C12.2985 1.33334 12 1.03486 12 0.666667C12 0.298477 12.2985 0 12.6667 0C13.0349 0 13.3333 0.298477 13.3333 0.666667Z" fill="white"/>
<path d="M22.6667 0.666667C22.6667 1.03486 22.3682 1.33334 22 1.33334C21.6318 1.33334 21.3333 1.03486 21.3333 0.666667C21.3333 0.298477 21.6318 0 22 0C22.3682 0 22.6667 0.298477 22.6667 0.666667Z" fill="white"/>
<path d="M17.3333 0.666667C17.3333 1.03486 17.0349 1.33334 16.6667 1.33334C16.2985 1.33334 16 1.03486 16 0.666667C16 0.298477 16.2985 0 16.6667 0C17.0349 0 17.3333 0.298477 17.3333 0.666667Z" fill="white"/>
<path d="M12 0.666667C12 1.03486 11.7015 1.33334 11.3333 1.33334C10.9651 1.33334 10.6667 1.03486 10.6667 0.666667C10.6667 0.298477 10.9651 0 11.3333 0C11.7015 0 12 0.298477 12 0.666667Z" fill="white"/>
<path d="M21.3333 0.666667C21.3333 1.03486 21.0349 1.33334 20.6667 1.33334C20.2985 1.33334 20 1.03486 20 0.666667C20 0.298477 20.2985 0 20.6667 0C21.0349 0 21.3333 0.298477 21.3333 0.666667Z" fill="white"/>
<path d="M16 0.666667C16 1.03486 15.7015 1.33334 15.3333 1.33334C14.9651 1.33334 14.6667 1.03486 14.6667 0.666667C14.6667 0.298477 14.9651 0 15.3333 0C15.7015 0 16 0.298477 16 0.666667Z" fill="white"/>
<path d="M10.6667 0.666667C10.6667 1.03486 10.3682 1.33334 10 1.33334C9.63182 1.33334 9.33334 1.03486 9.33334 0.666667C9.33334 0.298477 9.63182 0 10 0C10.3682 0 10.6667 0.298477 10.6667 0.666667Z" fill="white"/>
<path d="M20 0.666667C20 1.03486 19.7015 1.33334 19.3333 1.33334C18.9651 1.33334 18.6667 1.03486 18.6667 0.666667C18.6667 0.298477 18.9651 0 19.3333 0C19.7015 0 20 0.298477 20 0.666667Z" fill="white"/>
<path d="M14.6667 0.666667C14.6667 1.03486 14.3682 1.33334 14 1.33334C13.6318 1.33334 13.3333 1.03486 13.3333 0.666667C13.3333 0.298477 13.6318 0 14 0C14.3682 0 14.6667 0.298477 14.6667 0.666667Z" fill="white"/>
<path d="M9.33334 0.666667C9.33334 1.03486 9.03486 1.33334 8.66667 1.33334C8.29848 1.33334 8 1.03486 8 0.666667C8 0.298477 8.29848 0 8.66667 0C9.03486 0 9.33334 0.298477 9.33334 0.666667Z" fill="white"/>
</svg>
