<svg width="25" height="24" viewBox="0 0 25 24" fill="currentColor" xmlns="http://www.w3.org/2000/svg">
<path d="M9.83376 13.1249C9.83376 13.3104 9.77877 13.4916 9.67576 13.6458C9.57274 13.8 9.42633 13.9201 9.25502 13.9911C9.08372 14.062 8.89522 14.0806 8.71336 14.0444C8.5315 14.0083 8.36445 13.919 8.23334 13.7879C8.10223 13.6567 8.01294 13.4897 7.97677 13.3078C7.9406 13.126 7.95916 12.9375 8.03012 12.7662C8.10108 12.5949 8.22124 12.4485 8.37541 12.3454C8.52958 12.2424 8.71084 12.1874 8.89626 12.1874C9.1449 12.1874 9.38335 12.2862 9.55917 12.462C9.73498 12.6378 9.83376 12.8763 9.83376 13.1249ZM15.6463 12.1874C15.4608 12.1874 15.2796 12.2424 15.1254 12.3454C14.9712 12.4485 14.8511 12.5949 14.7801 12.7662C14.7092 12.9375 14.6906 13.126 14.7268 13.3078C14.7629 13.4897 14.8522 13.6567 14.9833 13.7879C15.1145 13.919 15.2815 14.0083 15.4634 14.0444C15.6452 14.0806 15.8337 14.062 16.005 13.9911C16.1763 13.9201 16.3227 13.8 16.4258 13.6458C16.5288 13.4916 16.5838 13.3104 16.5838 13.1249C16.5838 12.8763 16.485 12.6378 16.3092 12.462C16.1334 12.2862 15.8949 12.1874 15.6463 12.1874ZM22.55 17.9137L16.2688 20.699C16.0982 20.7736 15.914 20.8123 15.7278 20.8124C15.4577 20.8127 15.194 20.7305 14.972 20.5766C14.7499 20.4228 14.5803 20.2048 14.4856 19.9518L13.6775 17.759C13.2153 17.7937 12.7475 17.8134 12.2713 17.8134C11.795 17.8134 11.3281 17.7937 10.865 17.759L10.0559 19.9518C9.96138 20.2047 9.79183 20.4226 9.56999 20.5764C9.34816 20.7302 9.08463 20.8125 8.81469 20.8124C8.6285 20.8123 8.44434 20.7736 8.27376 20.699L1.99251 17.9137C1.70946 17.7888 1.47964 17.5679 1.34362 17.29C1.2076 17.0121 1.17411 16.6951 1.24907 16.3949L4.02126 5.48432C4.08481 5.23629 4.21917 5.01213 4.40795 4.83917C4.59672 4.6662 4.83176 4.55192 5.08438 4.51025L8.46501 3.95525C8.79137 3.90216 9.12581 3.97251 9.40312 4.15259C9.68044 4.33268 9.88075 4.60958 9.96501 4.92932L10.3109 6.2915C11.6141 6.15275 12.9284 6.15275 14.2316 6.2915L14.5775 4.92932C14.6618 4.60958 14.8621 4.33268 15.1394 4.15259C15.4167 3.97251 15.7511 3.90216 16.0775 3.95525L19.4581 4.51025C19.7108 4.55192 19.9458 4.6662 20.1346 4.83917C20.3233 5.01213 20.4577 5.23629 20.5213 5.48432L23.2897 16.3949C23.3649 16.6947 23.332 17.0113 23.1967 17.2891C23.0614 17.567 22.8324 17.7881 22.55 17.9137ZM22.2031 16.6715L19.4347 5.76088C19.4246 5.72453 19.4041 5.6919 19.3758 5.66694C19.3476 5.64198 19.3126 5.62576 19.2753 5.62025L15.8947 5.06244C15.8462 5.05376 15.7962 5.06332 15.7543 5.08928C15.7124 5.11524 15.6816 5.15576 15.6678 5.20307L15.3528 6.44432C15.8819 6.53518 16.406 6.65283 16.9231 6.79682C17.0568 6.83115 17.1732 6.91341 17.2501 7.02796C17.3271 7.14252 17.3592 7.28136 17.3405 7.41807C17.3217 7.55479 17.2534 7.67984 17.1484 7.76944C17.0435 7.85904 16.9092 7.90693 16.7713 7.904C16.7199 7.90414 16.6687 7.89688 16.6194 7.88244C15.2022 7.49789 13.7397 7.30616 12.2713 7.31244C10.8029 7.30616 9.3403 7.49789 7.92313 7.88244C7.85137 7.90463 7.77589 7.91221 7.70114 7.90476C7.6264 7.8973 7.5539 7.87495 7.48794 7.83902C7.42197 7.80309 7.36387 7.75431 7.31706 7.69556C7.27025 7.63682 7.23568 7.56929 7.2154 7.49696C7.19511 7.42464 7.18951 7.34899 7.19894 7.27446C7.20836 7.19994 7.23261 7.12806 7.27027 7.06307C7.30792 6.99807 7.35821 6.94127 7.41817 6.89603C7.47813 6.85078 7.54655 6.818 7.61938 6.79963C8.13652 6.65565 8.66063 6.53799 9.18969 6.44713L8.87469 5.20588C8.86165 5.15794 8.83112 5.11662 8.78913 5.09008C8.74713 5.06353 8.69672 5.05367 8.64782 5.06244L5.26719 5.62494C5.22987 5.63045 5.19495 5.64667 5.16666 5.67163C5.13837 5.69659 5.11793 5.72922 5.10782 5.76557L2.33938 16.6715C2.32968 16.7142 2.33525 16.759 2.35511 16.798C2.37498 16.8371 2.40789 16.8679 2.44813 16.8853L8.72938 19.6696C8.75539 19.681 8.78348 19.6869 8.81188 19.6869C8.84028 19.6869 8.86837 19.681 8.89438 19.6696C8.9187 19.6596 8.94072 19.6446 8.9591 19.6258C8.97747 19.6069 8.99181 19.5845 9.00126 19.5599L9.71188 17.6334C9.00519 17.535 8.30583 17.3897 7.61844 17.1984C7.54561 17.18 7.4772 17.1472 7.41724 17.102C7.35728 17.0567 7.30698 16.9999 7.26933 16.9349C7.23168 16.8699 7.20742 16.7981 7.198 16.7235C7.18857 16.649 7.19417 16.5734 7.21446 16.501C7.23475 16.4287 7.26932 16.3612 7.31612 16.3024C7.36293 16.2437 7.42103 16.1949 7.487 16.159C7.55297 16.1231 7.62546 16.1007 7.7002 16.0933C7.77495 16.0858 7.85043 16.0934 7.92219 16.1156C9.33958 16.5008 10.8025 16.6932 12.2713 16.6874C13.7397 16.6937 15.2022 16.502 16.6194 16.1174C16.6911 16.0953 16.7666 16.0877 16.8414 16.0951C16.9161 16.1026 16.9886 16.1249 17.0546 16.1609C17.1205 16.1968 17.1786 16.2456 17.2254 16.3043C17.2723 16.3631 17.3068 16.4306 17.3271 16.5029C17.3474 16.5752 17.353 16.6509 17.3436 16.7254C17.3342 16.7999 17.3099 16.8718 17.2722 16.9368C17.2346 17.0018 17.1843 17.0586 17.1243 17.1039C17.0644 17.1491 16.996 17.1819 16.9231 17.2003C16.2357 17.3916 15.5364 17.5369 14.8297 17.6353L15.5403 19.5618C15.5498 19.5864 15.5641 19.6088 15.5825 19.6276C15.6009 19.6465 15.6229 19.6614 15.6472 19.6715C15.6732 19.6829 15.7013 19.6888 15.7297 19.6888C15.7581 19.6888 15.7862 19.6829 15.8122 19.6715L22.0934 16.8871C22.1342 16.8699 22.1676 16.8388 22.1877 16.7994C22.2078 16.7599 22.2133 16.7146 22.2031 16.6715Z" fill="#6C747B"/>
</svg>
