<svg width="25" height="24" viewBox="0 0 25 24" fill="none" xmlns="http://www.w3.org/2000/svg">
<path d="M21.2712 4.6875H3.27124C3.12206 4.6875 2.97898 4.74676 2.87349 4.85225C2.768 4.95774 2.70874 5.10082 2.70874 5.25V18C2.70874 18.3481 2.84702 18.6819 3.09316 18.9281C3.3393 19.1742 3.67314 19.3125 4.02124 19.3125H20.5212C20.8693 19.3125 21.2032 19.1742 21.4493 18.9281C21.6955 18.6819 21.8337 18.3481 21.8337 18V5.25C21.8337 5.10082 21.7745 4.95774 21.669 4.85225C21.5635 4.74676 21.4204 4.6875 21.2712 4.6875ZM12.2712 12.7369L4.71687 5.8125H19.8256L12.2712 12.7369ZM9.8028 12L3.83374 17.4713V6.52875L9.8028 12ZM10.6353 12.7631L11.8962 13.9144C11.9999 14.0092 12.1354 14.0619 12.2759 14.0619C12.4165 14.0619 12.5519 14.0092 12.6556 13.9144L13.9119 12.7631L19.8256 18.1875H4.7178L10.6353 12.7631ZM14.7397 12L20.7087 6.52875V17.4713L14.7397 12Z" fill="#6C747B"/>
</svg>
