<svg width="25" height="24" viewBox="0 0 25 24" fill="none" xmlns="http://www.w3.org/2000/svg">
<path d="M19.5959 7.11751C19.8326 6.39305 19.9138 5.6268 19.8342 4.86883C19.7545 4.11085 19.5158 3.37821 19.1337 2.71876C19.0843 2.6332 19.0133 2.56216 18.9277 2.51278C18.8421 2.46341 18.745 2.43745 18.6462 2.43751C17.7859 2.4356 16.9374 2.6387 16.1712 3.02998C15.4049 3.42125 14.7429 3.98945 14.24 4.68751H11.8025C11.2996 3.98945 10.6375 3.42125 9.8713 3.02998C9.10505 2.6387 8.25661 2.4356 7.39624 2.43751C7.29744 2.43745 7.20037 2.46341 7.11479 2.51278C7.02921 2.56216 6.95814 2.6332 6.90874 2.71876C6.52664 3.37821 6.28797 4.11085 6.20833 4.86883C6.12869 5.6268 6.20986 6.39305 6.44655 7.11751C5.97194 7.91424 5.71734 8.82268 5.70874 9.75001V10.5C5.71039 11.7845 6.19966 13.0204 7.07766 13.9579C7.95565 14.8954 9.15685 15.4646 10.4384 15.5503C9.80916 16.2106 9.45832 17.0879 9.45874 18V18.9375H7.02124C6.37477 18.9375 5.75479 18.6807 5.29767 18.2236C4.84055 17.7665 4.58374 17.1465 4.58374 16.5C4.58374 15.5552 4.20841 14.649 3.54031 13.9809C2.87221 13.3128 1.96607 12.9375 1.02124 12.9375C0.872056 12.9375 0.728982 12.9968 0.623493 13.1023C0.518003 13.2078 0.45874 13.3508 0.45874 13.5C0.45874 13.6492 0.518003 13.7923 0.623493 13.8978C0.728982 14.0033 0.872056 14.0625 1.02124 14.0625C1.66771 14.0625 2.28769 14.3193 2.74481 14.7764C3.20193 15.2336 3.45874 15.8535 3.45874 16.5C3.45874 17.4448 3.83407 18.351 4.50217 19.0191C5.17027 19.6872 6.07641 20.0625 7.02124 20.0625H9.45874V21.75C9.45874 21.8992 9.518 22.0423 9.62349 22.1478C9.72898 22.2533 9.87206 22.3125 10.0212 22.3125C10.1704 22.3125 10.3135 22.2533 10.419 22.1478C10.5245 22.0423 10.5837 21.8992 10.5837 21.75V18C10.5837 17.3535 10.8405 16.7336 11.2977 16.2764C11.7548 15.8193 12.3748 15.5625 13.0212 15.5625C13.6677 15.5625 14.2877 15.8193 14.7448 16.2764C15.2019 16.7336 15.4587 17.3535 15.4587 18V21.75C15.4587 21.8992 15.518 22.0423 15.6235 22.1478C15.729 22.2533 15.8721 22.3125 16.0212 22.3125C16.1704 22.3125 16.3135 22.2533 16.419 22.1478C16.5245 22.0423 16.5837 21.8992 16.5837 21.75V18C16.5842 17.0879 16.2333 16.2106 15.6041 15.5503C16.8856 15.4646 18.0868 14.8954 18.9648 13.9579C19.8428 13.0204 20.3321 11.7845 20.3337 10.5V9.75001C20.3251 8.82268 20.0705 7.91424 19.5959 7.11751ZM19.2087 10.5C19.2087 11.5443 18.7939 12.5458 18.0555 13.2842C17.317 14.0227 16.3155 14.4375 15.2712 14.4375H10.7712C9.72695 14.4375 8.72543 14.0227 7.98701 13.2842C7.24858 12.5458 6.83374 11.5443 6.83374 10.5V9.75001C6.84356 8.95929 7.08118 8.18818 7.51812 7.52908C7.57552 7.45289 7.61261 7.36336 7.6259 7.26889C7.63918 7.17443 7.62822 7.07814 7.59405 6.98908C7.38179 6.44102 7.28417 5.85526 7.30723 5.26799C7.33029 4.68073 7.47353 4.10442 7.72812 3.5747C8.39452 3.62497 9.04003 3.82994 9.61336 4.17333C10.1867 4.51671 10.6721 4.98905 11.0309 5.55283C11.0818 5.63248 11.1519 5.69803 11.2349 5.74342C11.3178 5.78881 11.4108 5.81257 11.5053 5.81251H14.5372C14.6316 5.81267 14.7246 5.78905 14.8075 5.74383C14.8904 5.69861 14.9606 5.63325 15.0116 5.55376C15.3702 4.98971 15.8555 4.51711 16.4289 4.17355C17.0022 3.82999 17.6478 3.62494 18.3144 3.5747C18.5689 4.10442 18.7122 4.68073 18.7353 5.26799C18.7583 5.85526 18.6607 6.44102 18.4484 6.98908C18.4143 7.07773 18.4032 7.17357 18.4162 7.26767C18.4291 7.36177 18.4657 7.45105 18.5225 7.5272C18.9608 8.18645 19.1992 8.9584 19.2087 9.75001V10.5Z" fill="#6C747B"/>
</svg>
