<svg width="82" height="24" viewBox="0 0 82 24" fill="none" xmlns="http://www.w3.org/2000/svg">
<path d="M11.8521 0C5.30728 0 0 5.37353 0 12C0 18.6265 5.30728 24 11.8521 24C18.3969 24 23.7009 18.6265 23.7009 12C23.7009 5.37353 18.3936 0 11.8521 0Z" fill="white"/>
<path d="M16.6688 17.2519H15.165V14.0126H8.53899V17.2519H7.03516V6.74817H8.53899V9.90849H15.165V6.74817H16.6688V17.2519ZM8.61045 12.8024H15.2364V11.1285H8.61045V12.8024Z" fill="black"/>
<path d="M38.0066 17.0754V12.6844H32.059V17.0754H30.738V7.11536H32.059V11.4227H38.0034V7.11536H39.3276V17.0754H38.0066ZM45.028 9.97688C46.0821 9.97688 46.9183 10.3383 47.5365 11.0646C48.1547 11.7908 48.4638 12.6878 48.4638 13.7655H42.8578C42.8773 14.224 43.014 14.6524 43.2678 15.0473C43.5215 15.4456 43.8502 15.7233 44.2504 15.8806C44.5139 16.0011 44.8132 16.0614 45.1516 16.0614C45.5518 16.0614 45.9487 15.981 46.3392 15.8171C46.7296 15.6531 47.0029 15.4121 47.1558 15.0941H48.3825C48.3109 15.5158 48.0994 15.8907 47.7545 16.222C47.4096 16.5533 47.0224 16.8077 46.5962 16.9851C46.2058 17.1524 45.7242 17.2361 45.1516 17.2361C44.1332 17.2361 43.2873 16.8914 42.617 16.1986C41.9468 15.5058 41.6084 14.6423 41.6084 13.6048C41.6084 12.5673 41.9305 11.7005 42.5747 11.011C43.219 10.3249 44.0389 9.97688 45.028 9.97688ZM45.028 11.0713C44.5009 11.0713 44.0519 11.2118 43.6842 11.493C43.3166 11.7741 43.0693 12.1757 42.9424 12.6978H47.0875C46.9346 12.1824 46.6776 11.7842 46.3229 11.4997C45.9683 11.2152 45.5388 11.0713 45.028 11.0713ZM55.7454 17.0754V15.884C55.7194 15.9308 55.6413 16.048 55.5144 16.2354C55.2606 16.5634 54.932 16.8144 54.5318 16.9851C54.1316 17.1591 53.7184 17.2428 53.2922 17.2428C52.2933 17.2428 51.4864 16.8947 50.878 16.1986C50.2696 15.5025 49.9637 14.639 49.9637 13.6115C49.9637 12.564 50.2696 11.6971 50.8845 11.011C51.4994 10.3249 52.2998 9.98023 53.2922 9.98023C53.7184 9.98023 54.1316 10.0605 54.5318 10.2178C54.932 10.3785 55.2541 10.6161 55.5014 10.9341C55.6283 11.1014 55.7096 11.2252 55.7454 11.2989V6.75391H56.9851V17.0788H55.7454V17.0754ZM55.7747 13.6115C55.7747 12.902 55.5665 12.3129 55.1533 11.8511C54.74 11.3892 54.1967 11.1583 53.5232 11.1583C52.8334 11.1583 52.2803 11.3926 51.8671 11.8611C51.4539 12.3297 51.2457 12.912 51.2457 13.6149C51.2457 14.3244 51.4571 14.9134 51.8801 15.3753C52.3031 15.8371 52.8497 16.0681 53.5232 16.0681C54.2065 16.0681 54.7498 15.8304 55.1598 15.3585C55.5697 14.8866 55.7747 14.3043 55.7747 13.6115ZM62.4707 9.97688C63.5248 9.97688 64.361 10.3383 64.9792 11.0646C65.5974 11.7908 65.9065 12.6878 65.9065 13.7655H60.3005C60.32 14.224 60.4567 14.6524 60.7105 15.0473C60.9642 15.4456 61.2929 15.7233 61.6931 15.8806C61.9566 16.0011 62.2559 16.0614 62.5943 16.0614C62.9945 16.0614 63.3914 15.981 63.7819 15.8171C64.1723 15.6531 64.4456 15.4121 64.5985 15.0941H65.8252C65.7536 15.5158 65.5421 15.8907 65.1972 16.222C64.8523 16.5533 64.4651 16.8077 64.0389 16.9851C63.6485 17.1524 63.1669 17.2361 62.5943 17.2361C61.5759 17.2361 60.73 16.8914 60.0597 16.1986C59.3862 15.5058 59.0511 14.6423 59.0511 13.6048C59.0511 12.5673 59.3732 11.7005 60.0207 11.011C60.6617 10.3249 61.4783 9.97688 62.4707 9.97688ZM62.4707 11.0713C61.9436 11.0713 61.4946 11.2118 61.1269 11.493C60.7593 11.7741 60.512 12.1757 60.3851 12.6978H64.5302C64.3773 12.1824 64.1203 11.7842 63.7656 11.4997C63.411 11.2152 62.9782 11.0713 62.4707 11.0713ZM69.1374 13.163V17.0754H67.8977V10.1476H69.1374V11.4227C69.1731 11.3089 69.2512 11.1717 69.3684 11.001C69.5603 10.6831 69.8532 10.4521 70.2468 10.3082C70.6438 10.1643 71.0537 10.0907 71.48 10.0907H73.1719V11.3658H71.4539C70.7089 11.3658 70.1362 11.4896 69.736 11.7373C69.3391 11.9883 69.1374 12.4602 69.1374 13.163ZM80.0207 17.0754V15.884C79.8027 16.3224 79.4774 16.6604 79.0447 16.8947C78.6119 17.129 78.1434 17.2461 77.6326 17.2461C76.6402 17.2461 75.8463 16.8947 75.2477 16.1952C74.649 15.4924 74.3464 14.6323 74.3464 13.6149C74.3464 12.5874 74.6523 11.7239 75.2607 11.0278C75.8691 10.3316 76.6597 9.98357 77.6326 9.98357C78.5696 9.98357 79.2887 10.3015 79.7865 10.9374C79.9134 11.1248 79.9915 11.2453 80.0175 11.3022V10.1509H81.2571V17.0788L80.0207 17.0754ZM80.0468 13.6115C80.0468 12.9087 79.8483 12.3263 79.4481 11.8578C79.0479 11.3892 78.5208 11.155 77.8668 11.155C77.1933 11.155 76.6532 11.3926 76.2433 11.8645C75.8333 12.3364 75.6283 12.9187 75.6283 13.6115C75.6283 14.3512 75.8333 14.9301 76.2433 15.3518C76.6532 15.8304 77.1933 16.0681 77.8668 16.0681C78.5208 16.0681 79.0479 15.8304 79.4481 15.3518C79.8483 14.8733 80.0468 14.2943 80.0468 13.6115Z" fill="white"/>
</svg>
