<svg width="25" height="24" viewBox="0 0 25 24" fill="none" xmlns="http://www.w3.org/2000/svg">
<path d="M23.3338 9.75005C23.3336 9.20027 23.1722 8.6626 22.8697 8.20353C22.5672 7.74446 22.1368 7.38413 21.6316 7.16707C21.1265 6.95002 20.5689 6.88578 20.0276 6.98228C19.4864 7.07878 18.9853 7.3318 18.5863 7.71005C16.9588 6.82036 14.99 6.29724 12.9322 6.20443L13.4844 2.89036L15.4682 3.19599C15.5152 3.69155 15.7399 4.15336 16.1008 4.49622C16.4617 4.83909 16.9344 5.03987 17.4317 5.06152C17.929 5.08318 18.4174 4.92424 18.8067 4.61404C19.196 4.30383 19.46 3.8633 19.55 3.37371C19.6399 2.88412 19.5498 2.37851 19.2962 1.95017C19.0426 1.52184 18.6426 1.19968 18.1701 1.04313C17.6975 0.886578 17.1843 0.906206 16.7251 1.09839C16.2659 1.29057 15.8918 1.64235 15.6716 2.0888L13.1066 1.69411C12.9606 1.67161 12.8115 1.70747 12.6917 1.79396C12.5719 1.88044 12.4909 2.0106 12.4663 2.1563L11.7932 6.19599C9.67066 6.26536 7.62972 6.79411 5.95628 7.71005C5.68435 7.44665 5.36204 7.24087 5.00866 7.10503C4.65529 6.96919 4.27813 6.90609 3.89978 6.91952C3.52143 6.93294 3.14969 7.02261 2.80683 7.18316C2.46398 7.3437 2.15706 7.57181 1.90448 7.85382C1.6519 8.13583 1.45885 8.46593 1.33691 8.82433C1.21496 9.18274 1.16663 9.56208 1.19482 9.93961C1.223 10.3171 1.32711 10.6851 1.50091 11.0214C1.67472 11.3578 1.91463 11.6555 2.20628 11.8969C2.04279 12.4156 1.95933 12.9562 1.95878 13.5001C1.95878 15.4932 3.05941 17.3522 5.05722 18.7351C6.99128 20.0747 9.55253 20.8126 12.2713 20.8126C14.99 20.8126 17.5513 20.0747 19.4853 18.7351C21.4832 17.3522 22.5838 15.4932 22.5838 13.5001C22.5835 12.9563 22.5004 12.4157 22.3372 11.8969C22.6486 11.6323 22.8989 11.3034 23.071 10.9328C23.243 10.5622 23.3327 10.1587 23.3338 9.75005ZM17.5213 2.06255C17.7067 2.06255 17.888 2.11754 18.0421 2.22055C18.1963 2.32356 18.3165 2.46998 18.3874 2.64129C18.4584 2.81259 18.4769 3.00109 18.4408 3.18295C18.4046 3.36481 18.3153 3.53185 18.1842 3.66296C18.0531 3.79408 17.886 3.88336 17.7042 3.91954C17.5223 3.95571 17.3338 3.93715 17.1625 3.86619C16.9912 3.79523 16.8448 3.67507 16.7418 3.5209C16.6388 3.36673 16.5838 3.18547 16.5838 3.00005C16.5838 2.75141 16.6826 2.51295 16.8584 2.33714C17.0342 2.16132 17.2726 2.06255 17.5213 2.06255ZM21.3791 11.2041C21.2619 11.2736 21.1739 11.3833 21.1315 11.5128C21.0891 11.6423 21.0951 11.7828 21.1485 11.9082C21.3524 12.4142 21.4578 12.9545 21.4588 13.5001C21.4588 16.9116 17.3338 19.6876 12.2713 19.6876C7.20878 19.6876 3.08378 16.9116 3.08378 13.5001C3.08495 12.9558 3.18995 12.4168 3.39316 11.9119C3.44765 11.7862 3.45438 11.6449 3.41209 11.5146C3.3698 11.3843 3.28139 11.2739 3.16347 11.2041C2.94796 11.0765 2.76355 10.9026 2.62362 10.6948C2.48369 10.4871 2.39175 10.2509 2.35448 10.0032C2.3172 9.75553 2.33552 9.50268 2.4081 9.26297C2.48068 9.02327 2.60571 8.80272 2.77412 8.61734C2.94252 8.43196 3.15008 8.28639 3.38174 8.19119C3.61339 8.09599 3.86333 8.05355 4.11342 8.06694C4.36352 8.08033 4.6075 8.14923 4.82766 8.26863C5.04782 8.38802 5.23864 8.55493 5.38628 8.75724C5.46737 8.86864 5.58652 8.9464 5.72114 8.97578C5.85575 9.00516 5.99647 8.9841 6.1166 8.91661C6.12754 8.91092 6.13818 8.90466 6.14847 8.89786C7.83691 7.87505 10.011 7.31255 12.2713 7.31255C14.5307 7.31255 16.7038 7.87505 18.3922 8.89693L18.4072 8.90724C18.5281 8.98139 18.6726 9.00714 18.8116 8.97933C18.9507 8.95151 19.0741 8.87219 19.1572 8.75724C19.3049 8.55493 19.4957 8.38802 19.7158 8.26863C19.936 8.14923 20.18 8.08033 20.4301 8.06694C20.6802 8.05355 20.9301 8.09599 21.1618 8.19119C21.3934 8.28639 21.601 8.43196 21.7694 8.61734C21.9378 8.80272 22.0628 9.02327 22.1354 9.26297C22.208 9.50268 22.2263 9.75553 22.189 10.0032C22.1518 10.2509 22.0598 10.4871 21.9199 10.6948C21.78 10.9026 21.5955 11.0765 21.38 11.2041H21.3791ZM15.7682 16.2366C15.838 16.3684 15.8526 16.5225 15.8089 16.6651C15.7651 16.8077 15.6665 16.927 15.5347 16.9969C14.5297 17.5306 13.4092 17.8097 12.2713 17.8097C11.1334 17.8097 10.0128 17.5306 9.00785 16.9969C8.87911 16.9254 8.78357 16.8062 8.74173 16.665C8.69989 16.5238 8.71509 16.3719 8.78408 16.2417C8.85306 16.1116 8.97032 16.0138 9.11068 15.9692C9.25103 15.9245 9.40328 15.9368 9.53472 16.0032C10.3774 16.451 11.317 16.6852 12.2713 16.6852C13.2255 16.6852 14.1652 16.451 15.0078 16.0032C15.1396 15.9333 15.2938 15.9187 15.4363 15.9625C15.5789 16.0062 15.6983 16.1049 15.7682 16.2366ZM8.52128 13.3126C8.2617 13.3126 8.00794 13.2356 7.7921 13.0914C7.57626 12.9471 7.40803 12.7422 7.30869 12.5023C7.20935 12.2625 7.18336 11.9986 7.234 11.744C7.28465 11.4894 7.40965 11.2555 7.59321 11.072C7.77676 10.8884 8.01063 10.7634 8.26523 10.7128C8.51983 10.6621 8.78373 10.6881 9.02356 10.7875C9.26338 10.8868 9.46837 11.055 9.61259 11.2709C9.75681 11.4867 9.83378 11.7405 9.83378 12.0001C9.83378 12.3481 9.6955 12.682 9.44936 12.9281C9.20322 13.1743 8.86938 13.3126 8.52128 13.3126ZM17.3338 12.0001C17.3338 12.2596 17.2568 12.5134 17.1126 12.7292C16.9684 12.9451 16.7634 13.1133 16.5236 13.2126C16.2837 13.312 16.0198 13.338 15.7652 13.2873C15.5106 13.2367 15.2768 13.1117 15.0932 12.9281C14.9097 12.7446 14.7846 12.5107 14.734 12.2561C14.6834 12.0015 14.7094 11.7376 14.8087 11.4978C14.908 11.258 15.0763 11.053 15.2921 10.9087C15.5079 10.7645 15.7617 10.6876 16.0213 10.6876C16.3694 10.6876 16.7032 10.8258 16.9494 11.072C17.1955 11.3181 17.3338 11.652 17.3338 12.0001Z" fill="#6C747B"/>
</svg>
