<svg width="364" height="83" viewBox="0 0 364 83" fill="none" xmlns="http://www.w3.org/2000/svg">
<path d="M26.1743 81.2945H38.7516V10.8014H64.9259V0H0V10.8014H26.1743V81.2945Z" fill="white"/>
<path d="M113.597 44.1151V81.2945H124.701V41.0452C124.701 27.7425 116.089 21.6027 105.438 21.6027C95.4671 21.6027 89.4617 26.1507 86.4024 30.5849H86.1758V0H75.0715V81.2945H86.1758V45.7068C86.1758 36.9521 92.2945 31.1534 101.812 31.1534C110.197 31.1534 113.597 36.3836 113.597 44.1151Z" fill="white"/>
<path d="M164.579 83C179.763 83 188.261 74.5863 191.32 63.4438H179.989C178.969 67.3096 175.004 73.9041 164.806 73.9041C153.362 73.9041 147.696 64.9219 147.47 55.2575H191.887C192 54.3479 192 52.6425 192 51.0507C192 33.0863 182.142 21.489 164.579 21.489C146.903 21.489 136.025 33.9959 136.025 52.1877C136.025 69.9247 146.223 83 164.579 83ZM147.47 46.5027C148.15 36.9521 154.948 30.5849 164.239 30.5849C174.097 30.5849 180.443 37.4068 180.443 46.5027H147.47Z" fill="white"/>
<path d="M239.203 81.2945H251.793V10.8014H277.996V0H213V10.8014H239.203V81.2945Z" fill="white"/>
<path d="M336.55 83C351.749 83 360.257 74.5863 363.319 63.4438H351.976C350.955 67.3096 346.985 73.9041 336.777 73.9041C325.32 73.9041 319.648 64.9219 319.422 55.2575H363.887C364 54.3479 364 52.6425 364 51.0507C364 33.0863 354.132 21.489 336.55 21.489C318.854 21.489 307.965 33.9959 307.965 52.1877C307.965 69.9247 318.174 83 336.55 83ZM319.422 46.5027C320.102 36.9521 326.908 30.5849 336.209 30.5849C346.078 30.5849 352.43 37.4068 352.43 46.5027H319.422Z" fill="white"/>
<path d="M286 21H296V51H286V21Z" fill="#75FB4C"/>
<path d="M277 51H286V81H277V51Z" fill="#75FB4C"/>
</svg>
